<?xml version="1.0" encoding="UTF-8" standalone="no"?>
<svg
   xmlns:dc="http://purl.org/dc/elements/1.1/"
   xmlns:cc="http://creativecommons.org/ns#"
   xmlns:rdf="http://www.w3.org/1999/02/22-rdf-syntax-ns#"
   xmlns:svg="http://www.w3.org/2000/svg"
   xmlns="http://www.w3.org/2000/svg"
   xmlns:sodipodi="http://sodipodi.sourceforge.net/DTD/sodipodi-0.dtd"
   xmlns:inkscape="http://www.inkscape.org/namespaces/inkscape"
   version="1.1"
   id="svg2"
   width="252"
   height="294"
   viewBox="0 0 252 294"
   sodipodi:docname="main_top.svg"
   inkscape:version="1.0.2-2 (e86c870879, 2021-01-15)"
   inkscape:export-filename="D:\Developement\MyFirstApp\KotKit-Ecole-IT\assets\images\main_top.png"
   inkscape:export-xdpi="96"
   inkscape:export-ydpi="96">
  <metadata
     id="metadata8">
    <rdf:RDF>
      <cc:Work
         rdf:about="">
        <dc:format>image/svg+xml</dc:format>
        <dc:type
           rdf:resource="http://purl.org/dc/dcmitype/StillImage" />
        <dc:title></dc:title>
      </cc:Work>
    </rdf:RDF>
  </metadata>
  <defs
     id="defs6" />
  <sodipodi:namedview
     pagecolor="#ffffff"
     bordercolor="#666666"
     borderopacity="1"
     objecttolerance="10"
     gridtolerance="10"
     guidetolerance="10"
     inkscape:pageopacity="0"
     inkscape:pageshadow="2"
     inkscape:window-width="1920"
     inkscape:window-height="1111"
     id="namedview4"
     showgrid="false"
     inkscape:zoom="2.5"
     inkscape:cx="24.2"
     inkscape:cy="147"
     inkscape:window-x="-9"
     inkscape:window-y="-9"
     inkscape:window-maximized="1"
     inkscape:current-layer="g10" />
  <g
     inkscape:groupmode="layer"
     inkscape:label="Image"
     id="g10">
    <g
       id="g141">
      <path
         style="fill:#e9c6af;stroke:#000000;stroke-width:1px;stroke-linecap:butt;stroke-linejoin:miter;stroke-opacity:1"
         d="m 0,0 h 252 v 0 c 0,0 -5.54193,30.688669 -21.75306,64.518333 C 213.91758,98.594715 186.96516,136.01705 164.8,159.6 c -61.9985,65.96422 -91.362468,89.12494 -91.6,89.6 0,0 -68,48.4 -73.2,44.8 0,0 -0.19584067,-65.93517 0.37525051,-135.98716 C 0.99392865,82.123677 0,0 0,0 Z"
         id="path16"
         sodipodi:nodetypes="cccsscssc" />
      <path
         style="fill:#ac9393;stroke-width:1"
         id="path14"
         sodipodi:type="arc"
         sodipodi:cx="81.474068"
         sodipodi:cy="147.11324"
         sodipodi:rx="68.687119"
         sodipodi:ry="55.599998"
         sodipodi:start="0.014150257"
         sodipodi:end="5.0008875"
         sodipodi:arc-type="slice"
         d="M 150.15431,147.89996 A 68.687119,55.599998 0 0 1 102.42516,200.06363 68.687119,55.599998 0 0 1 26.138299,180.05243 68.687119,55.599998 0 0 1 25.27772,115.14295 68.687119,55.599998 0 0 1 101.01645,93.811066 L 81.474068,147.11324 Z"
         transform="rotate(-9.9679243)" />
      <g
         aria-label="K O T K I T"
         id="text20"
         style="font-style:normal;font-weight:normal;font-size:48px;line-height:1.25;font-family:sans-serif;fill:#d40000;fill-opacity:1;stroke:none"
         transform="rotate(-41.111018,87.706064,7.8638695)">
        <path
           d="m 40.195312,147.4875 q -0.1875,1.00782 -1.125,1.3125 -0.75,0.23438 -3.75,0.23438 -2.882812,0 -4.171875,-0.23438 -0.609375,-0.11718 -0.796875,-0.23437 Q 30.1875,148.425 30,147.88594 q -1.078125,-3.14062 -2.15625,-6.28125 -1.757813,-5.0625 -2.203125,-5.57812 -2.71875,0.91406 -2.789063,1.3125 -0.351562,1.75781 -0.9375,5.32031 -0.5625,3.53906 -0.914062,5.32031 -0.140625,0.72656 -0.796875,0.82031 -1.265625,0.1875 -4.453125,0.1875 -3.046875,0 -3.984375,-0.1875 -0.65625,-0.14062 -0.539062,-0.72656 0.515625,-2.53125 1.78125,-7.64062 1.265625,-5.10938 1.78125,-7.66407 0.539062,-2.71875 1.382812,-8.15625 0.867187,-5.46093 1.40625,-8.17968 0.117187,-0.51563 0.609375,-0.51563 0.726562,0 2.15625,0.0703 1.453125,0.0703 2.179687,0.0703 0.75,0 2.25,-0.0703 1.5,-0.0703 2.226563,-0.0703 0.398437,0 0.304687,0.42188 -0.351562,1.73437 -1.242187,5.25 -0.867188,3.49218 -1.195313,5.22656 -0.421875,2.01562 0.679688,2.01562 2.789062,0 4.640625,-1.52343 1.382812,-1.125 3.140625,-4.10157 1.21875,-2.27343 3.820312,-6.70312 0.375,-0.58594 1.171875,-0.58594 0.609375,0 1.804688,0.0703 1.21875,0.0703 1.828125,0.0703 0.632812,0 1.898437,-0.0469 1.265625,-0.0469 1.875,-0.0469 0.5625,0 0.46875,0.53906 -0.164062,0.77344 -1.757812,3.77344 -4.664063,8.85937 -8.882813,11.0625 -0.867187,0.44531 -0.914062,0.72656 0,-0.0234 2.90625,7.03125 2.929687,7.05469 2.648437,8.39062 z"
           style="font-style:italic;font-variant:normal;font-weight:bold;font-stretch:normal;font-size:48px;font-family:'Berlin Sans FB Demi';-inkscape-font-specification:'Berlin Sans FB Demi Bold Italic';fill:#d40000"
           id="path28" />
        <path
           d="m 67.617187,131.47969 q -0.5625,2.76563 -1.546875,8.32031 -0.960937,5.55469 -1.5,8.32032 -0.09375,0.46875 -0.328125,0.58593 -0.04687,0.0234 -0.632812,0.0937 -1.570313,0.1875 -4.125,0.1875 -3.421875,0 -4.3125,-0.1875 -0.65625,-0.14062 -0.539063,-0.72656 -0.07031,0.375 1.03125,-4.125 2.320313,-9.49219 2.929688,-12.46875 0.492187,-2.50781 1.335937,-7.52344 0.84375,-5.01562 1.335938,-7.52343 0.117187,-0.51563 0.65625,-0.51563 0.726562,0 2.15625,0.0703 1.453125,0.0703 2.179687,0.0703 0.726563,0 2.15625,-0.0703 1.453125,-0.0703 2.179688,-0.0703 0.679687,0 0.5625,0.51563 -0.492188,2.50781 -1.78125,7.52343 -1.265625,5.01563 -1.757813,7.52344 z"
           style="font-style:italic;font-variant:normal;font-weight:bold;font-stretch:normal;font-size:48px;font-family:'Berlin Sans FB Demi';-inkscape-font-specification:'Berlin Sans FB Demi Bold Italic';fill:#d40000"
           id="path30" />
        <path
           d="m 108.89063,123.08907 q -0.0937,0.46875 -0.60938,0.46875 -0.89062,0 -6.98437,-0.35157 -1.312505,5.92969 -1.781255,8.27344 -0.5625,2.76563 -1.453125,8.32031 -0.890625,5.55469 -1.429688,8.32032 -0.09375,0.44531 -0.328125,0.5625 -0.07031,0.0469 -0.679687,0.11718 -1.453125,0.1875 -4.171875,0.1875 -3.023438,0 -4.195313,-0.1875 -0.632812,-0.11718 -0.515625,-0.72656 0.5625,-2.76562 1.898438,-8.29687 1.335937,-5.53125 1.898437,-8.29688 0.351563,-1.82812 1.429688,-8.15625 -4.78125,0.46875 -7.570313,0.46875 -0.375,0 -0.328125,-0.23437 0.07031,-0.30469 0.703125,-1.80469 0.703125,-1.64063 0.820313,-1.99219 0.28125,-1.10156 0.609375,-2.20312 Q 86.71875,115.8 87.117187,115.8 q 0.04687,0 0.304688,0.0234 3.703125,0.49219 11.132812,0.49219 2.109373,0 7.875003,-0.44531 3.09375,-0.23438 3.11719,-0.23438 0.46875,0 0.51562,0.0703 0.0703,0.0469 0.0234,0.44532 -0.14063,0.63281 -0.39844,1.75781 -0.30469,1.24219 -0.39844,1.75781 -0.11718,0.58594 -0.21093,1.73438 -0.0703,1.125 -0.1875,1.6875 z"
           style="font-style:italic;font-variant:normal;font-weight:bold;font-stretch:normal;font-size:48px;font-family:'Berlin Sans FB Demi';-inkscape-font-specification:'Berlin Sans FB Demi Bold Italic';fill:#d40000"
           id="path32" />
      </g>
      <g
         id="g66"
         transform="rotate(-40.830508,126.8253,8.3651178)">
        <path
           d="m 3.863567,82.728905 q -0.1875,1.00782 -1.125,1.3125 -0.75,0.23438 -3.75,0.23438 -2.882812,0 -4.171875,-0.23438 -0.609375,-0.11718 -0.796875,-0.23437 -0.164062,-0.14063 -0.351562,-0.67969 -1.078123,-3.14062 -2.156253,-6.28125 -1.75781,-5.0625 -2.20312,-5.57812 -2.71875,0.91406 -2.78907,1.3125 -0.35156,1.75781 -0.9375,5.32031 -0.5625,3.53906 -0.91406,5.32031 -0.14062,0.72656 -0.79687,0.82031 -1.26563,0.1875 -4.45313,0.1875 -3.04687,0 -3.98437,-0.1875 -0.65625,-0.14062 -0.53907,-0.72656 0.51563,-2.53125 1.78125,-7.64062 1.26563,-5.10938 1.78125,-7.66407 0.53907,-2.71875 1.38282,-8.15625 0.86718,-5.46093 1.40625,-8.17968 0.11718,-0.51563 0.60937,-0.51563 0.72656,0 2.15625,0.0703 1.45313,0.0703 2.17969,0.0703 0.75,0 2.25,-0.0703 1.5,-0.0703 2.22656,-0.0703 0.39844,0 0.30469,0.42188 -0.35156,1.73437 -1.24219,5.25 -0.86719,3.49218 -1.19531,5.22656 -0.42188,2.01562 0.67969,2.01562 2.78906,0 4.640623,-1.52343 1.382812,-1.125 3.140625,-4.10157 1.21875,-2.27343 3.820312,-6.70312 0.375,-0.58594 1.171875,-0.58594 0.609375,0 1.804688,0.0703 1.21875,0.0703 1.828125,0.0703 0.632812,0 1.898437,-0.0469 1.265625,-0.0469 1.875,-0.0469 0.5625,0 0.46875,0.53906 -0.164062,0.77344 -1.757812,3.77344 -4.664063,8.85937 -8.882813,11.0625 -0.867187,0.44531 -0.914062,0.72656 0,-0.0234 2.90625,7.03125 2.929687,7.05469 2.648437,8.39062 z"
           style="font-style:italic;font-variant:normal;font-weight:bold;font-stretch:normal;font-size:48px;line-height:1.25;font-family:'Berlin Sans FB Demi';-inkscape-font-specification:'Berlin Sans FB Demi Bold Italic';fill:#000000;fill-opacity:1;stroke:none"
           id="path22" />
        <path
           d="m 54.137005,67.635155 q -1.453125,7.3125 -7.125,12.25782 -5.742188,5.01562 -13.03125,5.01562 -7.242188,0 -11.015625,-5.0625 -3.703125,-4.94531 -2.25,-12.21094 1.453125,-7.28906 7.148437,-12.25781 5.789063,-5.08594 13.03125,-5.08594 7.195313,0 10.992188,5.08594 3.703125,5.01563 2.25,12.25781 z m -8.882813,-0.0469 q 0.703125,-3.51563 -0.9375,-5.97656 -1.710937,-2.57813 -5.179687,-2.57813 -3.304688,0 -6.117188,2.67188 -2.742187,2.57812 -3.421875,5.92968 -0.726562,3.58594 0.890625,5.97657 1.710938,2.50781 5.25,2.50781 3.304688,0 6.140625,-2.64844 2.71875,-2.53125 3.375,-5.88281 z"
           style="font-style:italic;font-variant:normal;font-weight:bold;font-stretch:normal;font-size:48px;line-height:1.25;font-family:'Berlin Sans FB Demi';-inkscape-font-specification:'Berlin Sans FB Demi Bold Italic';fill:#000000;fill-opacity:1;stroke:none"
           id="path24" />
        <path
           d="m 94.30888,58.330475 q -0.09375,0.46875 -0.609375,0.46875 -0.890625,0 -6.984375,-0.35157 -1.3125,5.92969 -1.78125,8.27344 -0.5625,2.76563 -1.453125,8.32031 -0.890626,5.55469 -1.429688,8.32032 -0.09375,0.44531 -0.328125,0.5625 -0.07031,0.0469 -0.679688,0.11718 -1.453125,0.1875 -4.171875,0.1875 -3.023437,0 -4.195312,-0.1875 -0.632812,-0.11718 -0.515625,-0.72656 0.5625,-2.76562 1.898438,-8.29687 1.335937,-5.53125 1.898437,-8.29688 0.351563,-1.82812 1.429687,-8.15625 -4.781249,0.46875 -7.570312,0.46875 -0.375,0 -0.328125,-0.23437 0.07031,-0.30469 0.703125,-1.80469 0.703125,-1.64063 0.820313,-1.99219 0.28125,-1.10156 0.609375,-2.20312 0.515625,-1.75782 0.914062,-1.75782 0.04687,0 0.304688,0.0234 3.703125,0.49219 11.132812,0.49219 2.109375,0 7.875,-0.44531 3.09375,-0.23438 3.117188,-0.23438 0.46875,0 0.515625,0.0703 0.07031,0.0469 0.02344,0.44532 -0.140625,0.63281 -0.398438,1.75781 -0.304687,1.24219 -0.398437,1.75781 -0.117188,0.58594 -0.210938,1.73438 -0.07031,1.125 -0.1875,1.6875 z"
           style="font-style:italic;font-variant:normal;font-weight:bold;font-stretch:normal;font-size:48px;line-height:1.25;font-family:'Berlin Sans FB Demi';-inkscape-font-specification:'Berlin Sans FB Demi Bold Italic';fill:#000000;fill-opacity:1;stroke:none"
           id="path26" />
      </g>
    </g>
  </g>
</svg>
