<?xml version="1.0" encoding="UTF-8" standalone="no"?>
<svg
   xmlns:dc="http://purl.org/dc/elements/1.1/"
   xmlns:cc="http://creativecommons.org/ns#"
   xmlns:rdf="http://www.w3.org/1999/02/22-rdf-syntax-ns#"
   xmlns:svg="http://www.w3.org/2000/svg"
   xmlns="http://www.w3.org/2000/svg"
   xmlns:xlink="http://www.w3.org/1999/xlink"
   xmlns:sodipodi="http://sodipodi.sourceforge.net/DTD/sodipodi-0.dtd"
   xmlns:inkscape="http://www.inkscape.org/namespaces/inkscape"
   width="283px"
   height="314px"
   viewBox="0 0 283 314"
   version="1.1"
   id="svg76"
   sodipodi:docname="signup.svg"
   inkscape:version="1.0.2-2 (e86c870879, 2021-01-15)">
  <metadata
     id="metadata80">
    <rdf:RDF>
      <cc:Work
         rdf:about="">
        <dc:format>image/svg+xml</dc:format>
        <dc:type
           rdf:resource="http://purl.org/dc/dcmitype/StillImage" />
      </cc:Work>
    </rdf:RDF>
  </metadata>
  <sodipodi:namedview
     pagecolor="#ffffff"
     bordercolor="#666666"
     borderopacity="1"
     objecttolerance="10"
     gridtolerance="10"
     guidetolerance="10"
     inkscape:pageopacity="0"
     inkscape:pageshadow="2"
     inkscape:window-width="1920"
     inkscape:window-height="1111"
     id="namedview78"
     showgrid="false"
     inkscape:zoom="2.3407643"
     inkscape:cx="176.67033"
     inkscape:cy="157.86704"
     inkscape:window-x="-9"
     inkscape:window-y="-9"
     inkscape:window-maximized="1"
     inkscape:current-layer="Group-109" />
  <!-- Generator: Sketch 64 (93537) - https://sketch.com -->
  <title
     id="title2">Group 109</title>
  <desc
     id="desc4">Created with Sketch.</desc>
  <defs
     id="defs8">
    <polygon
       id="path-1"
       points="0 0.9349 282.978906 0.9349 282.978906 32 0 32" />
    <polygon
       id="path-3"
       points="0.761479052 0.008 2.76147905 0.008 2.76147905 19.8924167 0.761479052 19.8924167" />
  </defs>
  <g
     id="Page-1"
     stroke="none"
     stroke-width="1"
     fill="none"
     fill-rule="evenodd">
    <g
       id="03"
       transform="translate(-66.000000, -98.000000)">
      <g
         id="Group-109"
         transform="translate(66.000000, 98.000000)">
        <path
           d="m 100.22671,137.76099 c -4.552068,0.59406 -8.462164,3.82443 -8.116285,8.75709 0.325506,4.64657 4.569044,8.66251 9.265485,8.55564 11.33513,-0.25317 11.16571,-16.03044 1.74428,-19.63019 -1.74584,-0.66802 -2.86888,1.64806 -1.48757,2.77487 2.21212,1.80227 4.61336,3.67984 5.30074,6.60747 0.73578,3.14621 -1.32046,6.0689 -4.36997,6.85724 -8.074516,2.08804 -9.971421,-10.99552 -2.08103,-12.37495 0.99615,-0.17335 0.74905,-1.67814 -0.25565,-1.54717"
           id="Fill-1"
           fill="#7CABFF"
           style="fill:#502d16" />
        <path
           d="m 245.03112,186.78275 c 1.19135,4.55906 2.50039,9.06911 3.86105,13.57702 0.32829,1.08488 1.32349,1.42378 2.22578,0.79075 3.54927,-2.48948 7.10267,-4.93632 10.46406,-7.69223 0.64626,-0.53072 0.50585,-1.59855 -0.13421,-2.05254 -3.93744,-2.79 -9.25619,-6.90787 -14.25284,-6.93772 -1.26981,-0.006 -2.15971,1.83941 -0.87132,2.60672 2.01931,1.19998 4.43298,1.62839 6.58649,2.55342 2.488,1.0657 4.94916,2.31683 7.14191,3.93669 0.0516,-0.74812 0.0991,-1.49837 0.14866,-2.24649 -3.75988,2.39143 -7.29676,5.06847 -10.87288,7.73698 0.70408,0.14494 1.40815,0.292 2.11223,0.43694 -1.52584,-4.4525 -3.09091,-8.87515 -4.78192,-13.26371 -0.3572,-0.92503 -1.88097,-0.41775 -1.62701,0.55417"
           id="Fill-3"
           fill="#FF7081"
           style="fill:#c87137" />
        <path
           d="M226.412454,174.890356 C231.829771,172.343091 237.374255,169.414986 242.255351,165.977011 C244.046287,164.713784 242.280784,162.249763 240.392353,163.221636 C235.174265,165.904172 230.087582,169.371283 225.433267,172.907069 C224.500709,173.616724 225.187411,175.46682 226.412454,174.890356"
           id="Fill-5"
           fill="#FBC580" />
        <path
           d="M25.9773963,192.909825 C24.8478036,187.274105 23.3776409,181.423653 21.2347993,176.061414 C20.4478921,174.090331 17.5752575,175.113349 18.0533249,177.100639 C19.3669523,182.588477 21.4844097,188.147216 23.7795559,193.32511 C24.2407004,194.364335 26.2333527,194.186066 25.9773963,192.909825"
           id="Fill-7"
           fill="#FF957E"
           style="fill:#d38d5f" />
        <path
           d="M43.8818952,139.401877 L43.5388624,139.100075 C42.0309472,137.766916 39.5582522,137.505513 38.090834,139.100075 C36.6091227,140.711272 36.6639127,142.923697 38.090834,144.534894 C38.1932674,144.648961 38.2933186,144.760652 38.3933699,144.877095 C39.7440616,146.395613 42.5240569,146.352838 43.8818952,144.877095 C45.232587,143.408482 45.5065368,140.834844 43.8818952,139.401877"
           id="Fill-9"
           fill="#241352"
           style="fill:#502d16" />
        <path
           d="M187.001961,293.189563 C187.001961,293.189563 129.925085,306.420648 107,283.57273 L115.203314,229.001121 C117.69554,213.313953 116.210403,183.133783 128.263601,172.426534 C130.596478,170.353685 132.842244,169.322554 132.842244,169.322554 C141.298392,165.25308 156.340988,163.055309 170.786553,163 C188.334123,162.932505 206.393736,176.155121 211,193.027983 L192.007661,237.298868 L187.001961,293.189563 Z"
           id="Fill-11"
           fill="#FF7081"
           style="fill:#d38d5f" />
        <path
           d="M182.335442,199.783007 C182.335442,199.783007 207.935264,248.749096 195.22577,251.355833 C153.404005,259.934404 129.131723,266.96879 129.131723,266.96879 L127,283.092956 C127.623348,285.530698 211.607274,283.424607 221.555314,272.220287 C228.578086,264.309243 237.915543,246.028288 218.051374,206.460393 L212.015748,193 L182.335442,199.783007 Z"
           id="Fill-13"
           fill="#FFAFA7" />
        <path
           d="M135,172.906533 L71.1659133,197.349339 L69.1682362,164.228115 L55.5018253,159 C55.5018253,159 35.6847841,212.163735 60.4683315,222.061765 C85.2518789,231.961902 113.176763,213.66982 113.176763,213.66982 L135,172.906533 Z"
           id="Fill-15"
           fill="#FFAFA7" />
        <path
           d="M142,166 C120.0301,173.052336 106.928378,181.317089 76,194.315139 L91.8820834,230 L119.25521,221.144907 L142,166 Z"
           id="Fill-17"
           fill="#FF7081"
           style="fill:#784421" />
        <polyline
           id="Fill-19"
           fill="#FF7081"
           points="179.006342 192.406732 194.977564 230 231 223.336851 206.732231 181 178 192.406732"
           style="fill:#784421" />
        <path
           d="M159.434716,217.733706 C167.159943,217.327706 174.78998,217.643706 182.508861,217.739706 C183.183655,217.749706 183.143463,216.847706 182.508861,216.775706 C174.902093,215.915706 167.04783,216.259706 159.434716,216.877706 C158.861458,216.925706 158.848766,217.765706 159.434716,217.733706"
           id="Fill-21"
           fill="#002C68"
           style="fill:#c87137" />
        <path
           d="M193.684457,174.001347 C167.713442,176.368074 185.477212,215.015419 192.133101,226.715212 C192.501469,227.367443 193.497116,226.783197 193.130852,226.126717 C186.514958,214.305826 168.812232,178.339639 193.768656,174.64083 C194.126499,174.587717 194.046511,173.967354 193.684457,174.001347"
           id="Fill-23"
           fill="#002C68"
           style="fill:#c87137" />
        <path
           d="m 146.95896,193.68026 c -3.29614,12.79421 -5.50948,26.09951 -6.32537,39.27387 -0.0347,0.54489 0.91137,0.68217 0.99166,0.13095 1.91605,-13.09834 3.84296,-26.16077 6.00205,-39.22742 0.0694,-0.41605 -0.55767,-0.60824 -0.66834,-0.1774"
           id="Fill-25"
           fill="#002C68"
           style="fill:#c87137" />
        <path
           d="M183.296626,125 C183.698289,119.449764 184.104225,113.899529 184.505889,108.349293 C188.881456,107.119932 191.156837,101.539867 189.409174,97.3553519 C187.663647,93.1708364 182.706949,90.820775 178.205328,91.4620882 C181.044747,89.5338873 180.828959,84.9296419 178.49803,82.413393 C176.1671,79.8971441 172.515808,79.0811209 169.082441,78.9490232 C165.649073,78.8169254 162.175112,79.2323941 158.797293,78.6081258 C155.806183,78.0520369 152.874894,76.6863167 149.856009,77.0655651 C146.837124,77.446944 143.950702,80.8346119 145.578721,83.3977342 C141.224519,82.7606822 136.513519,82.1811566 132.644304,84.275545 C128.775089,86.3699333 126.833004,92.3292459 130.157409,95.2055677 C127.96108,96.3220067 127.411997,99.4923524 128.646899,101.620831 C129.8818,103.747178 132.411425,104.865748 134.868409,105.042588 C137.327529,105.217298 139.76742,104.597291 142.153899,103.981545"
           id="Fill-27"
           fill="#241352"
           style="fill:#241f1c" />
        <path
           d="M182.444663,114.256989 L181.58,125.747418 C181.58,125.747418 191.263798,127.065158 188.505714,135.97528 C185.743423,144.885403 179.118553,140.987357 179.118553,140.987357 C179.118553,140.987357 177.460757,163.821801 154.270556,156.581663 C135.813907,150.818412 136.941545,126.712912 139.285179,106.1617 C140.194021,98.2000943 147.660412,92.7254297 155.459203,94.257487 L169.401095,96.9969413 C177.460757,98.5799257 183.067388,106.00043 182.444663,114.256989"
           id="Fill-29"
           fill="#FFAFA7" />
        <path
           d="M181,136 L174.704673,169.150261 C173.284515,176.617913 165.829745,181.396121 158.343181,179.633856 C151.405604,177.999261 146.962841,171.308094 148.209188,164.374146 L151.626046,145.37433 L181,136 Z"
           id="Fill-31"
           fill="#FFAFA7" />
        <path
           d="M154.978163,136.089232 C155.015494,136.076111 155.083934,136.574695 154.409901,136.920204 C153.710981,137.248219 152.588975,136.533146 152.300697,135.358852 C151.927386,134.228293 151.983383,132.859376 152.043527,131.453284 C152.118189,129.957535 152.194925,128.433358 152.273735,126.832644 C152.665711,120.278901 153.219455,114.982549 153.520178,115 C153.814678,115.021911 153.74209,120.348877 153.354262,126.904807 C153.242269,128.501148 153.138571,130.027512 153.034874,131.521074 C152.916659,132.940286 152.80674,134.177997 153.0328,135.131428 C153.196642,136.093606 153.864453,136.565947 154.297908,136.493784 C154.741733,136.41506 154.903501,136.028003 154.978163,136.089232"
           id="Fill-33"
           fill="#241352" />
        <path
           d="M147.005166,154.015123 C147.112505,153.888366 148.247224,154.577851 150.24284,155.355683 C152.220932,156.137355 155.1344,156.936313 158.43341,156.995851 C161.736801,157.057309 164.683128,156.367824 166.698459,155.659133 C168.729125,154.956204 169.894512,154.308971 169.995279,154.43957 C170.078521,154.533678 169.059902,155.401776 167.029237,156.306366 C165.020477,157.210955 161.920809,158.061769 158.409314,157.996469 C154.900008,157.93309 151.846343,156.967043 149.879204,155.989471 C147.894541,155.00998 146.919734,154.10539 147.005166,154.015123"
           id="Fill-35"
           fill="#241352" />
        <path
           d="M152.020541,140.794282 C152.15434,140.691519 152.687346,141.147169 153.702909,141.544651 C154.694344,141.94795 156.262653,142.244607 157.813415,141.808346 C159.361984,141.362391 160.441156,140.313426 160.982936,139.475805 C161.544456,138.62849 161.676063,137.984763 161.853731,138.000274 C161.987531,137.998336 162.156426,138.709925 161.713351,139.780218 C161.294404,140.823366 160.109947,142.205828 158.164365,142.770059 C156.207817,143.3149 154.336813,142.801082 153.30809,142.168989 C152.242078,141.529139 151.908675,140.862145 152.020541,140.794282"
           id="Fill-37"
           fill="#241352" />
        <path
           d="M182.000276,136.79351 C181.985506,136.627545 182.565742,136.545612 183.209275,136.150655 C183.529987,135.946875 183.8085,135.65696 183.909778,135.251499 C184.013165,134.837635 183.895008,134.453182 183.572186,134.350241 C183.306333,134.2473 183.053139,134.333435 182.994061,134.430073 L182.059354,133.948982 C182.934982,132.148568 183.717772,130.904874 183.947757,131.005714 C184.173521,131.106554 183.776851,132.518315 183.0236,134.37335 L182.091004,133.890159 C182.483454,133.226295 183.342202,133.075035 183.962526,133.327135 C184.418275,133.476295 184.819165,133.930075 184.926772,134.358645 C185.055479,134.795618 185.00062,135.217885 184.869803,135.566624 C184.6145,136.278806 184.008945,136.696872 183.542647,136.850233 C182.567852,137.156955 181.996056,136.91746 182.000276,136.79351"
           id="Fill-39"
           fill="#241352" />
        <path
           d="M164.006507,114.697555 C163.90824,114.439555 164.935579,113.833555 166.234493,114.219555 C167.535193,114.597555 168.162317,115.689555 167.963996,115.861555 C167.771035,116.065555 167.018844,115.511555 165.996865,115.227555 C164.985606,114.913555 164.083334,114.981555 164.006507,114.697555"
           id="Fill-41"
           fill="#241352" />
        <path
           d="M143.009924,110.17627 C142.88169,109.92827 144.010146,109.17627 145.588406,109.32227 C147.166666,109.45627 148.149133,110.39627 147.981443,110.61627 C147.821644,110.86627 146.793802,110.46027 145.499629,110.36027 C144.205456,110.23027 143.124348,110.45027 143.009924,110.17627"
           id="Fill-43"
           fill="#241352" />
        <path
           d="M180.968246,126.379147 C174.484866,119.934309 172.580097,109.197208 170.820714,100.144359 C164.817741,104.602039 156.558122,105.697661 149.636477,102.956457 C147.462006,105.560171 144.910374,107.833051 142.08904,109.678423 C141.286255,110.202603 140.333871,110.713894 139.42152,110.432469 C138.334284,110.097337 137.849664,108.825556 137.590497,107.697709 C136.762428,104.086452 136.73293,100.219549 137.967658,96.7328912 C139.204494,93.2440854 141.791946,90.1806389 145.186397,88.8422609 C148.810515,87.4093585 152.891863,88.0323595 156.655046,89.0270129 C162.325106,90.5265119 167.790782,92.8294675 172.847692,95.8478001 C177.807677,98.8102774 182.573815,102.730887 184.676646,108.187517 C186.781585,113.641999 186.773157,124.241609 181.699391,127"
           id="Fill-45"
           fill="#241352"
           style="fill:#241f1c" />
        <path
           d="M165.882325,122.999637 C165.594325,122.981591 165.416325,122.294032 165.480325,121.465713 C165.546325,120.637394 165.832325,119.982318 166.118325,120.000364 C166.406325,120.01841 166.586325,120.705969 166.518325,121.534288 C166.454325,122.360803 166.168325,123.017683 165.882325,122.999637"
           id="Fill-47"
           fill="#241352" />
        <path
           d="M146.881053,120.999637 C146.593053,120.981591 146.415053,120.294032 146.481053,119.465713 C146.545053,118.637394 146.831053,117.982318 147.117053,118.000364 C147.405053,118.01841 147.585053,118.705969 147.519053,119.534288 C147.453053,120.360803 147.169053,121.017683 146.881053,120.999637"
           id="Fill-49"
           fill="#241352" />
        <path
           d="M54,160.530804 C54,160.530804 56.8263005,143.066332 60.2046958,143.254329 C63.5830911,143.442326 70.3356347,143.254329 70.3356347,143.254329 C70.3356347,143.254329 70.9004701,126.642252 72.7775923,129.284888 C74.6525911,131.927524 75.2429078,154.277776 68.0062195,165 L54,160.530804 Z"
           id="Fill-51"
           fill="#FFAFA7" />
        <path
           d="M129,267 C129,267 99.4279008,272.262557 100.008437,276.165199 C100.584826,280.065732 102.662317,284 102.662317,284 L129,283.369589 L129,267 Z"
           id="Fill-53"
           fill="#FFAFA7" />
        <polygon
           id="Fill-55"
           fill="#6F35A5"
           points="162 284.691301 161.770653 280.515412 99.390279 276.717995 78.468698 221 10 224.746672 33.359459 285"
           style="fill:#784421" />
        <path
           d="M48.0075844,251.274084 C48.1602898,254.030632 50.5178105,256.143009 53.2769673,255.992424 C56.0340324,255.839747 58.146806,253.482669 57.9920087,250.72403 C57.8413952,247.967482 55.4838745,245.855105 52.7268095,246.007782 C49.9676526,246.160458 47.8569708,248.517537 48.0075844,251.274084"
           id="Fill-57"
           fill="#FFFFFF" />
        <path
           d="M46.0108522,251.3848 C46.2241686,255.245353 49.5263891,258.202461 53.3849052,257.989148 C57.2455127,257.777926 60.2005713,254.475752 59.9893463,250.6152 C59.7781213,246.754647 56.4759008,243.797539 52.6152933,244.010852 C48.7546859,244.222074 45.7975359,247.524248 46.0108522,251.3848"
           id="Fill-59"
           fill="#FFFFFF" />
        <g
           id="Group-63"
           transform="translate(0.000000, 282.000000)"
           style="fill:#e9c6af">
          <mask
             id="mask-2"
             fill="white">
            <use
               xlink:href="#path-1"
               id="use40" />
          </mask>
          <g
             id="Clip-62"
             style="fill:#e9c6af" />
          <path
             d="M-0.00084801281,4.18783333 L267.32459,0.9349 L282.978906,8.94943333 C282.978906,8.94943333 77.7619266,63.8566333 -0.00084801281,4.18783333"
             id="Fill-61"
             fill="#E2D3F5"
             mask="url(#mask-2)"
             style="fill:#e9c6af" />
        </g>
        <path
           d="M158.032231,25.0571075 C158.032231,25.0571075 144.453597,25.7323671 144,40.1289003 C144,40.1289003 144.227843,48.0013876 148.527605,50.9247419 C152.827367,53.8480963 152.599523,57 152.599523,57 L163.914355,57 C163.914355,57 163.462849,52.9505205 165.273055,50.700348 C167.083261,48.4501755 171.608775,43.7275142 170.931516,36.7546804 C170.252166,29.7797688 165.045211,24.381848 158.032231,25.0571075"
           id="Fill-64"
           fill="#FFBC7A"
           style="fill:#ffccaa" />
        <path
           d="M152.457532,60.6725392 C156.454576,60.4925392 160.498934,60.9185392 164.471292,60.6945392 C165.04318,60.6605392 165.238609,59.7945392 164.613236,59.6685392 C160.751964,58.8925392 156.339375,59.3225392 152.457532,59.7465392 C151.863015,59.8105392 151.832158,60.7005392 152.457532,60.6725392"
           id="Fill-66"
           fill="#6F35A5"
           style="fill:#ff9955" />
        <path
           d="M154.485902,64.6887163 C156.141364,64.5987163 157.80752,64.5347163 159.46726,64.5507163 C161.118444,64.5667163 162.810266,64.8227163 164.450756,64.7107163 C165.053909,64.6687163 165.239988,63.8407163 164.600475,63.6847163 C161.424298,62.9087163 157.561554,63.3567163 154.353294,63.7787163 C153.803612,63.8527163 153.931943,64.7187163 154.485902,64.6887163"
           id="Fill-68"
           fill="#6F35A5"
           style="fill:#ff9955" />
        <path
           d="M155.435485,66.2715613 C156.758486,66.3655613 158.124352,66.7495613 159.441508,66.7215613 C160.09424,66.7055613 160.213096,65.7615613 159.593487,65.5615613 C158.313353,65.1475613 156.762382,65.2915613 155.435485,65.3455613 C154.850948,65.3695613 154.858742,66.2295613 155.435485,66.2715613"
           id="Fill-70"
           fill="#6F35A5"
           style="fill:#ff9955" />
        <path
           d="M156.110889,56.3513354 C156.437353,52.2774077 155.024852,47.7698585 154.308807,43.7720791 C153.897462,43.9412972 153.488294,44.1084002 153.076949,44.2776184 C153.671114,45.2231249 154.654859,47.9517681 156.167476,47.8544676 C157.730151,47.7529367 158.311257,45.0433306 158.5289,43.939182 L157.181692,43.939182 C157.484215,45.1977422 157.521214,48.2330933 159.553998,47.9454224 C161.275552,47.7021712 162.435588,45.2188945 162.962283,43.8566881 C162.498704,43.7318897 162.030772,43.6070913 161.56284,43.4822929 C160.522508,47.467381 160.024106,52.512198 161.064438,56.5268992 C161.251611,57.2503069 162.431235,57.1064715 162.409471,56.3513354 C162.281061,52.1293418 161.673838,47.9961878 162.962283,43.8566881 C163.240866,42.9682927 161.895834,42.6531239 161.56284,43.4822929 C161.371315,43.9518734 160.25916,46.6255206 159.205769,46.2807385 C158.940245,46.1940142 158.58984,43.8101531 158.5289,43.5795934 C158.374374,42.9556013 157.305748,42.9069511 157.181692,43.5795934 C157.029342,44.3981863 156.678937,46.6276358 155.686486,45.9613392 C155.111909,45.5763679 154.604801,44.2035854 154.241338,43.6155522 C153.82564,42.94291 152.896306,43.4188361 153.00948,44.1210915 C153.660232,48.118871 153.838699,52.7766014 155.490607,56.5163231 C155.634252,56.8378376 156.089125,56.6347758 156.110889,56.3513354"
           id="Fill-72"
           fill="#6F35A5"
           style="fill:#ff9955" />
        <path
           d="M115.625223,51.9773037 C121.968587,50.2608252 128.516291,48.7815532 134.710244,46.7045955 C135.204618,46.5383642 135.024446,45.8995876 134.486128,46.0135215 C128.028509,47.3769919 121.68954,49.4091231 115.352768,51.1424116 C114.733153,51.3123784 114.996819,52.1472706 115.625223,51.9773037"
           id="Fill-74"
           fill="#FFBC7A"
           style="fill:#ffccaa" />
        <path
           d="M123.5438,33.6923689 C127.484504,33.6183689 131.585611,33.8263689 135.495968,33.3643689 C136.152752,33.2863689 136.183098,32.4463689 135.495968,32.4003689 C131.566102,32.1263689 127.482337,32.5343689 123.5438,32.6523689 C122.821988,32.6743689 122.815485,33.7063689 123.5438,33.6923689"
           id="Fill-76"
           fill="#FFBC7A"
           style="fill:#ffccaa" />
        <path
           d="M141.810405,27.044897 C137.396008,23.1219326 133.182265,18.2264778 128.152959,15.1219895 C127.365445,14.6357443 126.631869,15.7160446 127.203627,16.3783062 C131.06137,20.8381204 136.472566,24.1516282 141.009945,27.8611728 C141.568757,28.3188153 142.369217,27.5399429 141.810405,27.044897"
           id="Fill-78"
           fill="#FFBC7A"
           style="fill:#ffccaa" />
        <path
           d="M151.998628,21.7086596 C152.04083,20.4043127 151.099723,19.1500454 150.511004,18.0642278 C149.814669,16.7803681 149.213289,15.291637 148.255301,14.2172012 C147.769977,13.6754306 146.790888,14.2285829 147.03988,14.9820538 C147.504103,16.38656 148.459981,17.6339982 149.217509,18.8791601 C149.856871,19.9399379 150.477242,21.4218399 151.580827,21.9658868 C151.772847,22.0614934 151.990188,21.9499524 151.998628,21.7086596"
           id="Fill-80"
           fill="#FFBC7A"
           style="fill:#ffccaa" />
        <g
           id="Group-84"
           transform="translate(158.000000, 0.000000)"
           style="fill:#ffccaa">
          <mask
             id="mask-4"
             fill="white">
            <use
               xlink:href="#path-3"
               id="use55" />
          </mask>
          <g
             id="Clip-83"
             style="fill:#ffccaa" />
          <path
             d="M2.5324,19.2930737 C2.7024,13.1986526 2.9104,6.75275789 2.2704,0.691494737 C2.1744,-0.205978947 1.0504,-0.234715789 0.9864,0.691494737 C0.5664,6.77707368 1.0144,13.2074947 1.4084,19.2930737 C1.4584,20.0844421 2.5104,20.0999158 2.5324,19.2930737"
             id="Fill-82"
             fill="#FFBC7A"
             mask="url(#mask-4)"
             style="fill:#ffccaa" />
        </g>
        <path
           d="M166.948278,21.7489037 C168.365669,19.5894694 169.842289,17.4236777 170.918608,15.0565647 C171.300527,14.2216117 170.24259,13.5816224 169.72996,14.3339277 C168.271721,16.4721703 167.179064,18.8710708 166.061898,21.2127537 C165.771884,21.827313 166.574528,22.3168413 166.948278,21.7489037"
           id="Fill-85"
           fill="#FFBC7A"
           style="fill:#ffccaa" />
        <path
           d="M173.587878,25.9598714 C176.433188,24.7671715 179.112349,23.2168683 181.81851,21.7451139 C184.49144,20.2940301 187.484208,19.0310498 189.812378,17.0631983 C190.285905,16.6601194 189.781225,15.8394923 189.205933,16.0275957 C186.481081,16.9123021 184.015837,18.6507087 181.536055,20.0645852 C178.730205,21.6665652 175.841281,23.1858623 173.207811,25.0648297 C172.796591,25.3583538 173.033354,26.1913834 173.587878,25.9598714"
           id="Fill-87"
           fill="#FFBC7A"
           style="fill:#ffccaa" />
        <path
           d="M175.445387,34.6689798 C177.82016,35.421043 181.902241,34.8659992 183.745384,33.2644222 C184.387088,32.7072598 183.703228,31.8895234 182.939741,32.0123957 C181.672727,32.2115336 180.504076,32.8174212 179.241746,33.0843507 C177.986441,33.3491617 176.700691,33.3449247 175.445387,33.5779584 C174.796657,33.6987122 174.909072,34.4973822 175.445387,34.6689798"
           id="Fill-89"
           fill="#FFBC7A"
           style="fill:#ffccaa" />
        <path
           d="M177.484251,45.1720261 C185.563369,46.9795958 193.90042,49.0459216 202.164667,49.993453 C203.163116,50.1070079 203.298323,48.7089802 202.397639,48.4688396 C194.478689,46.3615596 185.97731,45.2688269 177.842029,44.0104158 C177.005828,43.8819686 176.629329,44.9802859 177.484251,45.1720261"
           id="Fill-91"
           fill="#FFBC7A"
           style="fill:#ffccaa" />
        <path
           d="M60.2286883,188.242303 C60.5051102,186.431996 60.45154,184.708297 61.4800866,183.11134 C63.5307512,179.930101 66.4406808,180.730692 69.2584697,182.129085 C72.1298287,183.554939 74.8319062,184.40834 77.9539735,183.077542 C82.8288555,180.996851 85.1152287,173.749286 80.4653412,170.33991 C78.9589491,169.235137 77.4761279,171.058118 77.6775516,172.4544 C77.9582591,174.404123 78.9396639,176.548186 77.2447049,178.225413 C74.9797598,180.466645 72.3226812,178.584517 70.0620217,177.579026 C67.6192237,176.493264 65.0242865,176.254565 62.5043475,177.257944 C58.1673096,178.987981 55.0216715,184.786455 58.4673024,188.700689 C58.9515763,189.254132 60.110834,189.004871 60.2286883,188.242303"
           id="Fill-93"
           fill="#7E2E84"
           style="fill:#784421" />
        <path
           d="M103.890086,243.670857 C109.975514,244.029195 116.373402,244.172531 122.45021,243.698159 C124.682683,243.522402 124.406857,241.111295 122.241185,241.044746 C116.257038,240.858752 109.986288,241.2734 104.056013,241.903053 C102.86651,242.029324 102.510952,243.588951 103.890086,243.670857"
           id="Fill-95"
           fill="#7E2E84"
           style="fill:#784421" />
        <path
           d="m 217.15412,99.41171 c -0.81046,1.58257 1.83944,42.46663 1.83944,42.46663 L 238.99187,140.20608 236.66022,151 246.43237,139.90494 266,137.6304 264.8119,98 Z"
           id="Fill-97"
           fill="#E2D3F5"
           style="fill:#deaa87" />
        <path
           d="M 228,117.41399 232.23471,132 l 5.92688,-1.14529 -0.57902,-2.93625 1.6815,-1.00134 3.17496,3.11197 10.0398,-1.93916 1.30118,-3.80422 -2.85661,-0.63297 3.68774,-1.2215 -0.80122,-4.0752 -3.18992,0.27733 4.38,-1.18339 -0.99565,-5.05748 -10.20218,1.97092 c 0,0 0.65807,-7.06649 -2.35452,-9.36342 l -2.30537,0.44668 c 0,0 0.77772,2.2186 0.70507,3.58617 -0.0705,1.36757 -2.07676,7.6783 -2.07676,7.6783 l -3.13223,1.45225 -0.74353,-2.05771 z"
           id="Fill-99"
           fill="#ffffff" />
        <polygon
           id="Fill-101"
           fill="#E2D3F5"
           points="14 78 17.4064799 118.685078 92.23194 118.685078 96.3729421 133 100.741753 117.30155 115 116.472287 108.427623 80.0315891"
           style="fill:#c87137" />
        <path
           d="M23.5975871,92.8359906 C49.2213302,91.8600822 74.7540739,91.9255167 100.314329,93.996985 C101.226439,94.0698977 101.230672,92.7967299 100.314329,92.7350346 C74.7837016,91.0206515 49.1684236,90.3681763 23.5975871,91.7404306 C22.8061038,91.7834304 22.7955224,92.8659035 23.5975871,92.8359906"
           id="Fill-103"
           fill="#FFFFFF" />
        <path
           d="M25.5976033,101.836028 C51.2199253,100.860151 76.7554781,100.925583 102.31431,102.996985 C103.226446,103.069896 103.230678,101.796768 102.31431,101.733206 C76.7851066,100.020747 51.1691336,99.3682926 25.5976033,100.740503 C24.8060985,100.783501 24.7955169,101.86594 25.5976033,101.836028"
           id="Fill-105"
           fill="#FFFFFF" />
        <path
           d="M25.6018837,108.178773 C42.9101338,108.730773 60.0182885,107.542773 77.3095092,108.996773 C78.2269678,109.074773 78.2333538,107.706773 77.3095092,107.646773 C60.0374466,106.536773 42.8952331,107.246773 25.6018837,107.006773 C24.7972448,106.994773 24.8015022,108.152773 25.6018837,108.178773"
           id="Fill-107"
           fill="#FFFFFF" />
        <g
           id="g199"
           transform="translate(-4)">
          <g
             aria-label="SignUp"
             id="text84"
             style="font-style:normal;font-weight:normal;font-size:40px;line-height:1.25;font-family:sans-serif;fill:#e9c6af;fill-opacity:1;stroke:none"
             transform="matrix(0.33211612,0,0,0.33211612,67.905215,70.581433)">
            <path
               d="m 46.001724,52.829155 q 0,3.164062 -0.703125,5.527344 -0.683594,2.34375 -2.265625,3.90625 -1.503906,1.484375 -3.515625,2.167968 -2.011719,0.683594 -4.6875,0.683594 -2.734375,0 -4.765625,-0.722656 -2.03125,-0.722656 -3.417969,-2.128906 -1.582031,-1.601563 -2.285156,-3.867188 -0.683594,-2.265625 -0.683594,-5.566406 V 35.426811 h 3.867188 v 17.597656 q 0,2.363282 0.3125,3.730469 0.332031,1.367188 1.09375,2.480469 0.859375,1.269531 2.324219,1.914062 1.484375,0.644532 3.554687,0.644532 2.089844,0 3.554688,-0.625 1.464843,-0.644532 2.34375,-1.933594 0.761718,-1.113281 1.074218,-2.539063 0.332032,-1.445312 0.332032,-3.574218 V 35.426811 h 3.867187 z"
               id="path94"
               style="fill:#e9c6af" />
            <path
               d="m 72.290787,53.336967 q 0,2.65625 -0.761719,4.863282 -0.761719,2.1875 -2.148438,3.710937 -1.289062,1.445313 -3.046875,2.246094 -1.738281,0.78125 -3.691406,0.78125 -1.699219,0 -3.085937,-0.371094 -1.367188,-0.371094 -2.792969,-1.152344 v 9.140625 H 53.091568 V 42.692436 h 3.671875 v 2.285156 q 1.464844,-1.230468 3.28125,-2.050781 1.835937,-0.839844 3.90625,-0.839844 3.945312,0 6.132812,2.988282 2.207032,2.96875 2.207032,8.261718 z m -3.789063,0.09766 q 0,-3.945313 -1.347656,-5.898438 -1.347656,-1.953125 -4.140625,-1.953125 -1.582031,0 -3.183594,0.683594 -1.601562,0.683594 -3.066406,1.796875 v 12.363281 q 1.5625,0.703125 2.675781,0.957031 1.132813,0.253907 2.558594,0.253907 3.066406,0 4.785156,-2.070313 1.71875,-2.070312 1.71875,-6.132812 z"
               id="path96"
               style="fill:#e9c6af" />
          </g>
          <path
             d="m 53.581999,103.23466 q 0,0.68754 -0.32401,1.35927 -0.316108,0.67173 -0.893005,1.13798 -0.632215,0.50578 -1.477803,0.79028 -0.837686,0.28449 -2.02309,0.28449 -1.272334,0 -2.291781,-0.23708 -1.011545,-0.23708 -2.062603,-0.70334 v -1.95987 h 0.110637 q 0.893005,0.74286 2.062604,1.1459 1.169599,0.40303 2.196948,0.40303 1.454096,0 2.260171,-0.54529 0.813977,-0.54528 0.813977,-1.45409 0,-0.78237 -0.387232,-1.15379 -0.379329,-0.37143 -1.161696,-0.5769 -0.592701,-0.15805 -1.288138,-0.26079 -0.687535,-0.10274 -1.461999,-0.26079 -1.564733,-0.33191 -2.323392,-1.13008 -0.750756,-0.806081 -0.750756,-2.094221 0,-1.4778 1.248626,-2.41822 1.248625,-0.94832 3.16898,-0.94832 1.240723,0 2.275976,0.23707 1.035253,0.23709 1.833425,0.58481 v 1.84923 H 52.9972 q -0.671729,-0.569 -1.770204,-0.94042 -1.090571,-0.37933 -2.236462,-0.37933 -1.256528,0 -2.023089,0.52157 -0.758659,0.52158 -0.758659,1.34346 0,0.73495 0.379329,1.1538 0.37933,0.41884 1.335556,0.64011 0.505772,0.11064 1.43829,0.26869 0.932518,0.158061 1.580538,0.324011 1.311848,0.34773 1.975674,1.05106 0.663826,0.70334 0.663826,1.96777 z"
             id="path86"
             style="font-style:normal;font-weight:normal;font-size:40px;line-height:1.25;font-family:sans-serif;fill:#e9c6af;fill-opacity:1;stroke:none;stroke-width:0.404618" />
          <path
             d="m 57.572859,96.288199 h -1.675371 v -1.54103 h 1.675371 z m -0.09483,10.305111 h -1.485706 v -8.827311 h 1.485706 z"
             id="path88"
             style="font-style:normal;font-weight:normal;font-size:40px;line-height:1.25;font-family:sans-serif;fill:#e9c6af;fill-opacity:1;stroke:none;stroke-width:0.404618" />
          <path
             d="m 66.753238,99.207376 q 0,1.917084 -0.870785,2.814874 -0.870785,0.89778 -2.67986,0.89778 -0.600774,0 -1.174545,-0.0877 -0.567025,-0.081 -1.120547,-0.23626 v -1.29606 h 0.0675 q 0.310514,0.12151 0.985539,0.29702 0.67503,0.18225 1.350055,0.18225 0.648027,0 1.073294,-0.15525 0.425268,-0.15526 0.661526,-0.43202 0.236262,-0.26326 0.337517,-0.63452 0.101254,-0.37127 0.101254,-0.830294 v -0.68853 q -0.573774,0.45902 -1.100297,0.68853 -0.519769,0.22276 -1.329801,0.22276 -1.350055,0 -2.146589,-0.97204 -0.789783,-0.97879 -0.789783,-2.75411 0,-0.97204 0.270011,-1.67407 0.276761,-0.70878 0.749281,-1.2218 0.438767,-0.47927 1.066544,-0.74253 0.627777,-0.27001 1.2488,-0.27001 0.654777,0 1.093544,0.13501 0.445517,0.12825 0.93829,0.39826 l 0.081,-0.32401 h 1.188048 z m -1.26905,-1.21505 v -4.11092 q -0.506272,-0.22951 -0.94504,-0.32401 -0.432017,-0.10125 -0.864035,-0.10125 -1.046291,0 -1.647065,0.70202 -0.600774,0.70203 -0.600774,2.03859 0,1.26905 0.445517,1.92382 0.445517,0.65478 1.478309,0.65478 0.553521,0 1.107047,-0.20925 0.560271,-0.21601 1.026041,-0.57378 z"
             id="path90"
             style="font-style:normal;font-weight:normal;font-size:40px;line-height:1.25;font-family:sans-serif;fill:#e9c6af;fill-opacity:1;stroke:none;stroke-width:0.345614" />
          <path
             d="m 75.555597,100.06466 h -1.269051 v -4.293174 q 0,-0.51977 -0.06076,-0.97204 -0.06075,-0.45902 -0.222759,-0.71553 -0.168756,-0.28351 -0.48602,-0.41852 -0.31726,-0.14175 -0.823532,-0.14175 -0.519769,0 -1.086794,0.25651 -0.567021,0.25651 -1.086794,0.65478 v 5.629724 h -1.269053 v -7.540054 h 1.269053 v 0.83703 q 0.594024,-0.49277 1.228551,-0.76953 0.634523,-0.27676 1.302802,-0.27676 1.221798,0 1.863075,0.73578 0.641277,0.73578 0.641277,2.11959 z"
             id="path92"
             style="font-style:normal;font-weight:normal;font-size:40px;line-height:1.25;font-family:sans-serif;fill:#e9c6af;fill-opacity:1;stroke:none;stroke-width:0.345614" />
        </g>
        <path
           id="rect217"
           style="fill:#d38d5f;stroke-width:1"
           d="M 222.57782,22.377917 V 60.52609 H 268.715 V 22.377917 Z m 19.63424,6.174957 c 8.30874,-0.0324 11.04113,-1.4e-5 11.53273,0.135937 0.88409,0.24451 1.74158,1.12637 2.06249,2.121859 0.16573,0.514117 0.24843,1.240705 0.24843,2.165611 v 1.392177 l -1.62342,1.620302 c -0.89356,0.89101 -1.73743,1.620301 -1.87499,1.620301 -0.22847,0 -0.25,-0.235216 -0.25,-2.710919 v -2.709356 l -9.77024,0.0062 -9.77182,0.0062 -0.0359,9.842119 -0.0375,9.842119 h 9.80774 9.80775 v -1.615513 -1.615614 l 1.69999,-1.701551 c 0.93562,-0.935609 1.78483,-1.699988 1.88592,-1.699988 0.14565,0 0.17412,0.830733 0.1375,4.001535 -0.051,4.408233 -0.0521,4.411294 -1.0078,5.328088 -1.07298,1.029233 -0.44237,0.977136 -12.30616,1.009368 -8.36695,0.02272 -10.81905,-0.01126 -11.35618,-0.157812 -1.046,-0.285494 -1.67462,-0.897978 -2.12499,-2.074985 -0.28317,-0.740075 -0.29062,-1.070819 -0.29062,-11.206172 0,-6.72337 0.0529,-10.692407 0.15,-11.145236 0.18159,-0.846778 0.80955,-1.653608 1.62968,-2.092172 l 0.59999,-0.320311 z m 1.01405,0.28906 c -6.37095,-0.02664 -10.51145,0.01146 -11.09993,0.103125 -1.16871,0.18195 -1.9806,0.715137 -2.42498,1.593739 l -0.32343,0.642183 v 10.788987 c 0,11.791022 -0.0308,11.353726 0.83593,12.27804 0.21391,0.228126 0.64836,0.534358 0.96562,0.681245 0.54472,0.252191 1.16763,0.267319 11.16086,0.270311 7.52082,0.0024 10.74073,-0.04398 11.13118,-0.160936 0.7535,-0.225759 1.55988,-0.924039 1.87966,-1.628114 0.23531,-0.518077 0.26596,-0.993218 0.26875,-4.045284 l 0.003,-3.459352 -1.43749,1.432803 -1.43749,1.432802 -0.0406,1.737488 -0.0406,1.737488 h -10.16556 -10.16711 l -0.0375,-10.203054 -0.0375,-10.203054 h 10.24055 10.24056 v 2.629669 2.628107 l 1.44218,-1.435927 1.44061,-1.437491 -0.003,-1.443739 c -0.004,-2.022626 -0.42067,-2.926176 -1.65467,-3.587476 -0.57181,-0.306421 -0.66588,-0.309456 -10.73899,-0.35156 z m 17.09051,4.151534 c 0.1879,0 2.37342,2.196986 2.37342,2.385921 0,0.187887 -2.19699,2.373421 -2.38592,2.373421 -0.0794,0 -0.64653,-0.503845 -1.25937,-1.120305 -0.61284,-0.61646 -1.11406,-1.186184 -1.11406,-1.265616 0,-0.187887 2.197,-2.373421 2.38593,-2.373421 z m 0.002,0.43281 -0.97812,0.970305 -0.97655,0.968744 0.9703,0.978118 0.96875,0.976555 0.97811,-0.968742 0.97656,-0.970307 -0.96874,-0.978118 z m -17.80769,0.65312 c 3.32152,-0.0019 6.63593,0.03299 6.7109,0.107812 0.10995,0.109951 0.18389,1.959572 0.089,2.231234 -0.0491,0.140751 -1.5429,0.181249 -6.81089,0.181249 -6.01944,0 -6.75623,-0.02466 -6.83433,-0.228124 -0.16343,-0.425933 -0.0937,-2.039332 0.0938,-2.176547 0.10254,-0.07506 3.42999,-0.113686 6.75151,-0.115624 z m -6.49996,0.356247 v 0.937494 0.937493 h 6.48902 6.49058 v -0.937493 -0.937494 h -6.49058 z m 20.96392,1.874987 c 0.1801,0 2.39843,2.185021 2.39843,2.362484 0,0.242822 -8.84155,9.031188 -9.08588,9.031188 -0.12267,0 -0.69099,-0.473077 -1.26405,-1.049993 -0.57306,-0.576908 -1.04219,-1.1449 -1.04219,-1.262491 0,-0.221511 8.77429,-9.081188 8.99369,-9.081188 z m -0.0547,0.506247 -4.28746,4.28747 -4.28748,4.287471 0.93124,0.939056 c 0.51203,0.516628 0.96536,0.940618 1.00781,0.940618 0.0425,0 1.99095,-1.914922 4.32966,-4.254658 l 4.2531,-4.254658 -0.97343,-0.971868 z m -14.31865,1.657801 c 3.67236,0 6.68321,0.04838 6.69059,0.107812 0.0201,0.161719 0.0225,1.789735 0.003,2.162485 l -0.0172,0.324997 h -6.75309 c -3.71466,0 -6.79707,-0.04401 -6.84995,-0.09687 -0.17086,-0.170863 -0.10594,-2.144012 0.0766,-2.326546 0.12962,-0.129615 1.849,-0.171874 6.84995,-0.171874 z m -6.59058,0.431247 v 0.937494 0.937493 h 6.48902 6.49058 v -0.937493 -0.937494 h -6.49058 z m 4.93278,4.039034 h 5.01872 v 1.296867 1.298428 h -5.09684 c -2.80252,0 -5.13772,-0.04246 -5.19059,-0.09531 -0.17086,-0.170863 -0.10595,-2.145574 0.0766,-2.328109 0.12796,-0.127967 1.4811,-0.171874 5.19215,-0.171874 z m -4.93278,0.43281 v 0.937494 0.935931 h 4.83122 4.83122 v -0.935931 -0.937494 h -4.83122 z m 10.97024,3.028104 c 0.28124,0 2.29686,2.033493 2.29686,2.317171 0,0.120839 -0.24609,0.459419 -0.54687,0.75312 -0.54597,0.533117 -0.54787,0.534371 -1.80155,0.534371 h -1.25624 v -1.268741 -1.268741 l 0.54687,-0.532809 c 0.30078,-0.293701 0.64331,-0.534371 0.76093,-0.534371 z m -0.0718,0.435935 -0.47344,0.459372 c -0.43718,0.423725 -0.47343,0.530329 -0.47343,1.36874 v 0.907806 h 1.03749 c 0.93135,0 1.07821,-0.0388 1.44374,-0.38906 l 0.40781,-0.390622 -0.97031,-0.978118 z m -11.2593,0.645308 h 3.46248 3.46091 l 0.0406,1.26249 0.0422,1.260929 h -3.46403 -3.46404 l -0.0828,-0.328122 c -0.0454,-0.180919 -0.0631,-0.749375 -0.039,-1.262492 z m 0.36093,0.360934 v 0.86562 0.864056 h 3.17342 3.17185 v -0.864056 -0.86562 h -3.17185 z" />
      </g>
    </g>
  </g>
</svg>
